<?xml version="1.0" encoding="utf-8"?>
<!-- Generator: Adobe Illustrator 18.0.0, SVG Export Plug-In . SVG Version: 6.00 Build 0)  -->
<!DOCTYPE svg PUBLIC "-//W3C//DTD SVG 1.1//EN" "http://www.w3.org/Graphics/SVG/1.1/DTD/svg11.dtd">
<svg version="1.1" id="Layer_1" xmlns="http://www.w3.org/2000/svg" xmlns:xlink="http://www.w3.org/1999/xlink" x="0px" y="0px"
	 viewBox="0 0 45.4 40.6" enable-background="new 0 0 45.4 40.6" xml:space="preserve">
<g>
	<path fill="#AAD3C7" d="M20.4,10c0-2.7-2.2-5-5-5c-2.7,0-5,2.2-5,5c0,1.9,1,3.5,2.5,4.3l0.1-3.3c0-1.3,1.1-2.4,2.4-2.4h0.1
		c1.1,0,1.9,0.9,1.9,1.9v3.9C19.3,13.7,20.4,12,20.4,10z"/>
	<path fill="#616E7D" d="M17.6,10.5c0-1.1-0.9-1.9-1.9-1.9h-0.1c-1.3,0-2.4,1.1-2.4,2.4L13,14.3l-0.2,7.3c-0.1,0.2-0.1,5.3-0.1,5.3
		c-0.4-0.4-0.9-0.9-1.3-1.4c-1-1.1-2.8-1.9-4-2c-0.6-0.1-1.1,0-1.5,0.3c-0.1,0.1-0.2,0.2-0.3,0.3c-0.6,0.6-1.1,1.6-0.7,2.3
		c0.2,0.3,0.5,0.5,0.9,0.8c0.5,0.3,1.2,0.6,1.8,1.4c1,1.2,3.2,4,4.6,5.5c0.3,0.2,0.9,0.8,1.2,0.9c0.9,0.6,1.6,1.1,1.8,1.4
		c0.2,0.2,1.3,0.8,1.3,0.8c0.9,0.6,2.6,1.1,4.5,1.1c1.9,0,3.7,0.1,5-1h0.1l0-0.1c1.3-1.2,2.1-2.9,2.1-4.7c0-0.5,0-2.2,0-2.5v-6.4
		c0-0.4-0.1-1.9-1.3-2.3c-0.6-0.2-1.1-0.1-1.6,0.1l-0.1,0l0,0c-0.2-0.8-0.7-1.3-1.5-1.5c-1-0.2-1.6,0.1-2,0.4
		c-0.4-0.8-1.2-1.3-2.3-1.2c-0.8,0.1-1.4,0.5-1.8,1v-5.5V10.5z"/>
	<path fill="#82BFAB" d="M39.1,11.2c0.4-0.4,0.8-0.7,1-0.9c0.1-0.1,0.2-0.2,0.3-0.3l0.1-0.1l0,0l0,0l0,0h0l0,0
		c0.4-0.3,0.6-0.8,0.6-1.3c0-0.5-0.2-1-0.6-1.3l-5.5-4.7c-0.1-0.1-0.4-0.1-0.5,0l-1.8,2.1c-0.1,0.1-0.1,0.4,0,0.5l1.9,1.6l-11.2,0
		c-0.1,0-0.2,0-0.2,0.1c-0.1,0.1-0.1,0.2-0.1,0.2V10c0,0.1,0,0.2,0.1,0.2c0.1,0.1,0.2,0.1,0.2,0.1h11.2c-0.3,0.3-0.6,0.5-0.8,0.7
		c-0.3,0.2-0.5,0.4-0.7,0.6c-0.1,0.1-0.2,0.2-0.2,0.2c-0.1,0.1-0.1,0.1-0.2,0.2c-0.1,0.1-0.1,0.2-0.1,0.2c0,0.1,0,0.2,0.1,0.2l1.9,2
		c0.1,0.1,0.3,0.1,0.5,0l0.1-0.1l0,0c0.2-0.2,0.7-0.6,1.2-1C37.3,12.7,38.3,11.9,39.1,11.2z"/>
</g>
</svg>
