<?xml version="1.0" encoding="iso-8859-1"?>
<!-- Generator: Adobe Illustrator 19.0.0, SVG Export Plug-In . SVG Version: 6.00 Build 0)  -->
<svg version="1.1" id="Capa_1" xmlns="http://www.w3.org/2000/svg" xmlns:xlink="http://www.w3.org/1999/xlink" x="0px" y="0px"
	 viewBox="0 0 512 512" style="enable-background:new 0 0 512 512;" xml:space="preserve">
<path style="fill:#F3705A;" d="M512,156.8c0,164.267-156.8,217.6-256,330.667c-99.2-112-256-166.4-256-330.667
	C0,83.2,59.733,24.533,133.333,24.533C188.8,24.533,235.733,57.6,256,105.6c20.267-48,67.2-81.067,122.667-81.067
	C452.267,24.533,512,83.2,512,156.8z"/>
<path style="fill:#F7B64C;" d="M441.6,83.2l27.733,27.733c4.267,4.267,4.267,10.667,0,13.867L365.867,228.267
	c-4.267,4.267-10.667,4.267-13.867,0l-27.733-27.733c-4.267-4.267-4.267-10.667,0-13.867L427.733,83.2
	C430.933,78.933,437.333,78.933,441.6,83.2z"/>
<path style="fill:#FFD15C;" d="M365.867,83.2l103.467,103.467c4.267,4.267,4.267,10.667,0,13.867L441.6,228.267
	c-4.267,4.267-10.667,4.267-13.867,0L324.267,124.8c-4.267-4.267-4.267-10.667,0-13.867L352,83.2
	C355.2,78.933,361.6,78.933,365.867,83.2z"/>
<g>
</g>
<g>
</g>
<g>
</g>
<g>
</g>
<g>
</g>
<g>
</g>
<g>
</g>
<g>
</g>
<g>
</g>
<g>
</g>
<g>
</g>
<g>
</g>
<g>
</g>
<g>
</g>
<g>
</g>
</svg>
