<?xml version="1.0" encoding="utf-8"?>
<!-- Generator: Adobe Illustrator 18.0.0, SVG Export Plug-In . SVG Version: 6.00 Build 0)  -->
<!DOCTYPE svg PUBLIC "-//W3C//DTD SVG 1.1//EN" "http://www.w3.org/Graphics/SVG/1.1/DTD/svg11.dtd">
<svg version="1.1" id="Layer_1" xmlns="http://www.w3.org/2000/svg" xmlns:xlink="http://www.w3.org/1999/xlink" x="0px" y="0px"
	 viewBox="0 0 83.5 62" enable-background="new 0 0 83.5 62" xml:space="preserve">
<g>
	
		<radialGradient id="SVGID_1_" cx="41.9011" cy="49749.8516" r="36.3703" gradientTransform="matrix(1 0 0 0.1419 0 -7005.9575)" gradientUnits="userSpaceOnUse">
		<stop  offset="0" style="stop-color:#C0BFBF"/>
		<stop  offset="4.587770e-002" style="stop-color:#C4C3C2"/>
		<stop  offset="0.4427" style="stop-color:#E1E0DF"/>
		<stop  offset="0.7749" style="stop-color:#F5F4F3"/>
		<stop  offset="1" style="stop-color:#FFFFFF"/>
	</radialGradient>
	<ellipse fill="url(#SVGID_1_)" cx="41.9" cy="53.5" rx="35.5" ry="5.3"/>
	<g>
		<path fill="#EF4436" d="M42.5,16c0,0-7-23.1-22.6-10C3.3,20.1,23.7,47.5,42.5,53.5V16z"/>
		<path fill="#C63532" d="M42.5,16c0,0,7-23.1,22.6-10c16.7,14.1-3.7,41.4-22.6,47.5V16z"/>
		<path fill="#FFFFFF" d="M19,34.5c2.6-0.3,5.1-0.5,7.7-0.7l-0.6,0.3c0.4-0.7,0.9-1.4,1.3-2.2c0.4-0.7,0.9-1.4,1.3-2.1l1.3-2.1
			c0.5-0.7,0.9-1.4,1.4-2.1l1.4-2.1l1,2.4c1.2,2.9,2.5,5.7,3.7,8.6l3.6,8.6l-2.9,0.1l7-23.2l1.4-4.5l1.5,4.5l3.7,10.6l3.6,10.6
			L53,41c1-1.6,2-3.2,3-4.7c1-1.6,2-3.1,3.1-4.7l0.3-0.5l0.5,0c1.3,0.1,2.6,0.2,3.9,0.4c1.3,0.1,2.6,0.3,3.9,0.6
			c-1.3,0.2-2.6,0.4-3.9,0.6c-1.3,0.2-2.6,0.3-3.9,0.4l0.8-0.5c-0.9,1.7-1.7,3.3-2.6,4.9c-0.9,1.6-1.8,3.3-2.7,4.9l-1.4,2.5l-1-2.8
			L49,31.6L45.3,21l2.9-0.1l-7,23.2l-1.3,4.2l-1.7-4.1l-3.5-8.7c-1.2-2.9-2.3-5.8-3.5-8.7l2.4,0.3c-0.5,0.7-1,1.3-1.6,2l-1.6,1.9
			c-0.5,0.7-1.1,1.3-1.6,1.9c-0.6,0.6-1.1,1.3-1.7,1.9L27,35.3l-0.3,0C24.1,35.1,21.6,34.9,19,34.5z"/>
		<path fill="#555555" d="M58.5,5.9c0,0,7.2,1,8.7,7.5c1.1,4.7-0.5,10.5-1.7,12.5c-0.1-4.5,0.1-5.3-1.3-11.3
			C63.3,10.8,60.8,7.2,58.5,5.9z"/>
		<path fill="#3E3E3E" d="M26.3,5.9c0,0-7.2,1-8.7,7.5c-1.1,4.7,0.5,10.5,1.7,12.5c0.1-4.5-0.1-5.3,1.3-11.3
			C21.6,10.8,24.1,7.2,26.3,5.9z"/>
	</g>
</g>
</svg>
