<?xml version="1.0" encoding="utf-8"?>
<!-- Generator: Adobe Illustrator 18.0.0, SVG Export Plug-In . SVG Version: 6.00 Build 0)  -->
<!DOCTYPE svg PUBLIC "-//W3C//DTD SVG 1.1//EN" "http://www.w3.org/Graphics/SVG/1.1/DTD/svg11.dtd">
<svg version="1.1" id="Layer_1" xmlns="http://www.w3.org/2000/svg" xmlns:xlink="http://www.w3.org/1999/xlink" x="0px" y="0px"
	 viewBox="0 0 45.4 40.6" enable-background="new 0 0 45.4 40.6" xml:space="preserve">
<g>
	<path fill="none" d="M16.2,21.1c0,0.1,0,0.2,0.1,0.3c0.1,0.1,0.2,0.1,0.3,0.1h0.1c0.2,0,0.3-0.1,0.4-0.3c0.6-2.5,2.6-4.4,5.1-4.9
		c0.2,0,0.3-0.2,0.3-0.4v-0.1c0-0.2-0.2-0.4-0.4-0.4C19.2,16.1,16.9,18.3,16.2,21.1z"/>
	<path fill="none" d="M26.7,38.1c0.1,0,0.2-0.1,0.2-0.2v-0.4c0-0.1-0.1-0.2-0.2-0.2h-7.3c-0.1,0-0.2,0.1-0.2,0.2v0.4
		c0,0.1,0.1,0.2,0.2,0.2h1.3v-0.2h4.7v0.2H26.7z"/>
	<path fill="none" d="M19.4,33.3c-0.1,0-0.2,0.1-0.2,0.2V34c0,0.1,0.1,0.2,0.2,0.2h7.3c0.1,0,0.2-0.1,0.2-0.2v-0.4
		c0-0.1-0.1-0.2-0.2-0.2H19.4z"/>
	<path fill="none" d="M19.4,35.3c-0.1,0-0.2,0.1-0.2,0.2v0.4c0,0.1,0.1,0.2,0.2,0.2h7.3c0.1,0,0.2-0.1,0.2-0.2v-0.4
		c0-0.1-0.1-0.2-0.2-0.2H19.4z"/>
	<rect x="20.7" y="37.9" fill="#AAD3C7" width="4.7" height="0.2"/>
	<path fill="#616E7D" d="M33.2,22.9c0-5.7-4.6-10.4-10.2-10.4c-5.6,0-10.2,4.7-10.2,10.4c0,4,2.3,7.6,5.6,9.3c0,0.1,0,0.1,0,0.2l0,0
		v5.2c0,1,0.8,1.7,1.7,1.7h0.6v0h1.7h1.1h1.8v0h0.6c0.9,0,1.7-0.8,1.7-1.7v-5.2l0,0c0-0.1,0-0.1,0-0.2C30.9,30.5,33.2,27,33.2,22.9z
		 M17,21.3c0,0.2-0.2,0.3-0.4,0.3h-0.1c-0.1,0-0.2-0.1-0.3-0.1c-0.1-0.1-0.1-0.2-0.1-0.3c0.7-2.8,3-5,5.8-5.5c0.2,0,0.4,0.1,0.4,0.4
		V16c0,0.2-0.1,0.3-0.3,0.4C19.7,16.9,17.7,18.8,17,21.3z M27,37.9c0,0.1-0.1,0.2-0.2,0.2h-1.4h-4.7h-1.3c-0.1,0-0.2-0.1-0.2-0.2
		v-0.4c0-0.1,0.1-0.2,0.2-0.2h7.3c0.1,0,0.2,0.1,0.2,0.2V37.9z M27,35.9c0,0.1-0.1,0.2-0.2,0.2h-7.3c-0.1,0-0.2-0.1-0.2-0.2v-0.4
		c0-0.1,0.1-0.2,0.2-0.2h7.3c0.1,0,0.2,0.1,0.2,0.2V35.9z M27,34c0,0.1-0.1,0.2-0.2,0.2h-7.3c-0.1,0-0.2-0.1-0.2-0.2v-0.4
		c0-0.1,0.1-0.2,0.2-0.2h7.3c0.1,0,0.2,0.1,0.2,0.2V34z"/>
	<path fill="#AAD3C7" d="M22.3,3.2v5.9c0,0.4,0.3,0.8,0.8,0.8c0.4,0,0.8-0.3,0.8-0.8V3.2c0-0.4-0.3-0.8-0.8-0.8
		C22.6,2.5,22.3,2.8,22.3,3.2z"/>
	<path fill="#AAD3C7" d="M5.5,14c-0.4-0.2-0.8,0-1,0.4c-0.2,0.4,0,0.8,0.4,1l5.4,2.4c0.4,0.2,0.8,0,1-0.4c0.2-0.4,0-0.8-0.4-1
		L5.5,14z"/>
	<path fill="#AAD3C7" d="M40.4,14l-5.4,2.4c-0.4,0.2-0.6,0.6-0.4,1c0.2,0.4,0.6,0.6,1,0.4l5.4-2.4c0.4-0.2,0.6-0.6,0.4-1
		C41.3,14,40.8,13.9,40.4,14z"/>
</g>
</svg>
