<?xml version="1.0" encoding="iso-8859-1"?>
<!-- Generator: Adobe Illustrator 19.0.0, SVG Export Plug-In . SVG Version: 6.00 Build 0)  -->
<svg version="1.1" id="Capa_1" xmlns="http://www.w3.org/2000/svg" xmlns:xlink="http://www.w3.org/1999/xlink" x="0px" y="0px"
	 viewBox="0 0 512.138 512.138" style="enable-background:new 0 0 512.138 512.138;" xml:space="preserve">
<path style="fill:#F7B64C;" d="M467.418,289.205v-118.4c0-17.067-13.867-32-32-32H203.951l-18.133-39.467
	c-5.333-10.667-16-18.133-28.8-18.133H75.951c-17.067,0-32,13.867-32,32v176H467.418z"/>
<g>
	<path style="fill:#F3705A;" d="M194.352,313.738c0,0-108.8-10.667-134.4-78.933c-9.6-25.6,3.2-54.4,28.8-64
		c21.333-8.533,44.8,0,57.6,17.067c-2.133-21.333,10.667-42.667,32-51.2c25.6-9.6,54.4,3.2,64,28.8
		C269.018,233.738,194.352,313.738,194.352,313.738z"/>
	<path style="fill:#F3705A;" d="M376.751,243.338c0,0-46.933-4.267-57.6-34.133c-4.267-10.667,1.067-23.467,12.8-27.733
		c9.6-3.2,19.2,0,24.533,7.467c-1.067-9.6,4.267-18.133,13.867-22.4c10.667-4.267,23.467,1.067,27.733,12.8
		C408.751,209.205,376.751,243.338,376.751,243.338z"/>
</g>
<path style="fill:#FFD15C;" d="M1.285,280.672l38.4,205.867c3.2,14.933,16,25.6,30.933,25.6h371.2
	c14.933,0,27.733-10.667,30.933-25.6l38.4-205.867c3.2-19.2-11.733-37.333-30.933-37.333h-448
	C11.951,243.338-2.982,261.472,1.285,280.672z"/>
<path style="fill:#F3705A;" d="M352.218,151.605c0,0-69.333-61.867-52.267-120.533c6.4-22.4,29.867-35.2,52.267-29.867
	c19.2,5.333,30.933,22.4,30.933,40.533c9.6-16,28.8-23.467,46.933-19.2c21.333,6.4,35.2,29.867,28.8,52.267
	C442.885,133.472,352.218,151.605,352.218,151.605z"/>
<g>
	<path style="fill:#FFFFFF;" d="M93.018,422.538l-13.867-89.6h21.333l9.6,72.533h39.467l2.133,17.067H93.018z"/>
	<path style="fill:#FFFFFF;" d="M238.085,411.872c-8.533,8.533-20.267,12.8-33.067,12.8s-24.533-4.267-34.133-12.8
		s-16-19.2-17.067-32c-1.067-12.8,2.133-24.533,11.733-34.133c8.533-9.6,20.267-13.867,35.2-13.867s26.667,4.267,36.267,13.867
		c9.6,9.6,14.933,20.267,14.933,34.133C251.951,392.672,247.685,403.338,238.085,411.872z M230.618,379.872
		c0-8.533-3.2-14.933-8.533-20.267c-5.333-5.333-12.8-8.533-20.267-8.533c-7.467,0-14.933,3.2-19.2,8.533
		c-5.333,5.333-7.467,12.8-6.4,20.267s3.2,14.933,9.6,20.267c5.333,5.333,11.733,8.533,19.2,8.533c7.467,0,13.867-2.133,19.2-8.533
		C228.485,393.738,230.618,387.338,230.618,379.872z"/>
	<path style="fill:#FFFFFF;" d="M301.018,392.672l26.667-58.667h24.533l-43.733,89.6h-17.067l-36.267-89.6h23.467L301.018,392.672z"
		/>
	<path style="fill:#FFFFFF;" d="M433.285,334.005l-2.133,18.133h-48l-2.133,19.2h41.6l-2.133,17.067h-41.6l-2.133,18.133h46.933
		l-2.133,16h-66.133l8.533-89.6h69.333V334.005z"/>
</g>
<g>
</g>
<g>
</g>
<g>
</g>
<g>
</g>
<g>
</g>
<g>
</g>
<g>
</g>
<g>
</g>
<g>
</g>
<g>
</g>
<g>
</g>
<g>
</g>
<g>
</g>
<g>
</g>
<g>
</g>
</svg>
