<?xml version="1.0" encoding="utf-8"?>
<!-- Generator: Adobe Illustrator 18.0.0, SVG Export Plug-In . SVG Version: 6.00 Build 0)  -->
<!DOCTYPE svg PUBLIC "-//W3C//DTD SVG 1.1//EN" "http://www.w3.org/Graphics/SVG/1.1/DTD/svg11.dtd">
<svg version="1.1" id="Layer_1" xmlns="http://www.w3.org/2000/svg" xmlns:xlink="http://www.w3.org/1999/xlink" x="0px" y="0px"
	 viewBox="0 0 39 39.9" enable-background="new 0 0 39 39.9" xml:space="preserve">
<g>
	<path fill="#616E7D" d="M0.8,20.2c0,10.3,8.4,18.7,18.7,18.7c10.3,0,18.7-8.4,18.7-18.7c0-10.3-8.4-18.7-18.7-18.7
		C9.2,1.5,0.8,9.9,0.8,20.2z M34.1,20.2c0,7.9-6.4,14.4-14.4,14.4c-7.9,0-14.4-6.4-14.4-14.4c0-7.9,6.4-14.4,14.4-14.4
		C27.6,5.8,34.1,12.3,34.1,20.2z"/>
	<path fill="#FFFFFF" d="M19.1,31.3h1.6c0.5,0,0.9-0.4,0.9-0.9v-1.5c1.3-0.2,2.5-0.6,3.4-1.2c1.5-1,2.3-2.4,2.4-4.2
		c0-1.1-0.3-2.1-0.9-2.8c-1-1.2-2.7-2-4.9-2.3v-3.1c0.4,0.2,0.8,0.4,1.1,0.7c0.2,0.2,0.5,0.3,0.8,0.3c0.2,0,0.6-0.2,0.6-0.2l0,0
		l1.8-1.2c0.3-0.2,0.4-0.4,0.4-0.6c0-0.2-0.1-0.4-0.2-0.5c-1.1-1.3-2.6-2.1-4.4-2.4V9.5c0-0.5-0.4-0.9-0.9-0.9h-1.6
		c-0.5,0-0.9,0.4-0.9,0.9v1.7c-0.9,0.1-1.6,0.3-2.3,0.6c-2.2,1-3.3,2.5-3.3,4.5c0,1,0.3,1.9,0.9,2.6c1,1.3,2.5,2.1,4.7,2.4v3.9
		c-0.9-0.3-1.8-0.9-2.6-1.8c-0.2-0.2-0.4-0.4-0.7-0.4c-0.2,0-0.5,0.1-0.5,0.1l0,0l-1.7,1c-0.3,0.2-0.4,0.4-0.4,0.7
		c0,0.2,0.1,0.3,0.2,0.5c0.4,0.6,1,1.2,1.8,1.8c1.2,0.9,2.5,1.5,4,1.7v1.5C18.2,30.9,18.6,31.3,19.1,31.3z M21.6,21.9
		c0.9,0.3,1.3,0.8,1.3,1.6c0,0.7-0.3,1.3-1,1.6c-0.1,0.1-0.2,0.1-0.4,0.2V21.9z M17.1,16.4c0-0.6,0.3-1,1-1.3l0.1,0v2.7
		C17.5,17.5,17.1,17.1,17.1,16.4z"/>
	<path fill="#AAD3C7" d="M17.6,17.2c0,0.7,0.4,1.1,1.1,1.4v-2.7l-0.1,0C17.9,16.2,17.6,16.7,17.6,17.2z"/>
	<path fill="#AAD3C7" d="M21.1,24.4c0.1-0.1,0.2-0.1,0.4-0.2c0.6-0.4,1-0.9,1-1.6c0-0.8-0.4-1.3-1.3-1.6V24.4z"/>
	<path fill="#AAD3C7" d="M5.3,20.2c0,7.9,6.4,14.4,14.4,14.4c7.9,0,14.4-6.4,14.4-14.4c0-7.9-6.4-14.4-14.4-14.4
		C11.7,5.8,5.3,12.3,5.3,20.2z M21.7,9.5v1.7c1.8,0.3,3.3,1.1,4.4,2.4c0.2,0.1,0.2,0.3,0.2,0.5c0,0.2-0.1,0.5-0.4,0.6l-1.8,1.2l0,0
		c0,0-0.3,0.2-0.6,0.2c-0.3,0-0.5-0.1-0.8-0.3c-0.4-0.3-0.7-0.6-1.1-0.7v3.1c2.2,0.3,3.8,1.1,4.9,2.3c0.6,0.8,1,1.7,0.9,2.8
		c0,1.8-0.8,3.2-2.4,4.2c-1,0.6-2.1,1.1-3.4,1.2v1.5c0,0.5-0.4,0.9-0.9,0.9h-1.6c-0.5,0-0.9-0.4-0.9-0.9v-1.5
		c-1.5-0.2-2.8-0.8-4-1.7c-0.7-0.6-1.3-1.1-1.8-1.8c-0.1-0.1-0.2-0.3-0.2-0.5c0-0.3,0.1-0.5,0.4-0.7l1.7-1l0,0c0,0,0.3-0.1,0.5-0.1
		c0.3,0,0.5,0.1,0.7,0.4c0.8,0.9,1.7,1.5,2.6,1.8v-3.9c-2.2-0.3-3.7-1.1-4.7-2.4c-0.6-0.8-0.9-1.6-0.9-2.6c0-2,1-3.5,3.3-4.5
		c0.7-0.3,1.5-0.5,2.3-0.6V9.5c0-0.5,0.4-0.9,0.9-0.9h1.6C21.3,8.6,21.7,9,21.7,9.5z"/>
</g>
</svg>
