<?xml version="1.0" encoding="utf-8"?>
<!-- Generator: Adobe Illustrator 18.0.0, SVG Export Plug-In . SVG Version: 6.00 Build 0)  -->
<!DOCTYPE svg PUBLIC "-//W3C//DTD SVG 1.1//EN" "http://www.w3.org/Graphics/SVG/1.1/DTD/svg11.dtd">
<svg version="1.1" id="Layer_1" xmlns="http://www.w3.org/2000/svg" xmlns:xlink="http://www.w3.org/1999/xlink" x="0px" y="0px"
	 viewBox="0 0 45.4 40.6" enable-background="new 0 0 45.4 40.6" xml:space="preserve">
<g>
	<path fill="#AAD3C7" d="M35.8,27.3c-2,0-3.7,1.4-4.1,3.3c-0.3-0.1-0.7-0.2-1-0.2c-2,0-3.7,1.6-3.7,3.7c0,2,1.6,3.7,3.7,3.7h0h9.7v0
		c1.6,0,2.8-1.3,2.8-2.9c0-1.6-1.3-2.9-2.9-2.9c-0.1,0-0.2,0-0.2,0c0-0.2,0-0.3,0-0.5C40.1,29.2,38.2,27.3,35.8,27.3z"/>
	<path fill="#616E7D" d="M30.7,29.2c0.1,0,0.2,0,0.2,0c0.9-1.9,2.8-3.2,5-3.2c2.8,0,5.1,2.1,5.4,4.8c0.2,0,0.4,0.1,0.5,0.2
		c0.2-0.7,0.3-1.5,0.3-2.2c0-4.9-4-8.9-8.9-8.9c-0.9,0-1.7,0.1-2.5,0.4c-1.1-4.6-5.2-8-10.1-8c-5.7,0-10.3,4.6-10.3,10.3
		c0,0.4,0,0.8,0.1,1.2c-0.2,0-0.4,0-0.6,0c-3.8,0-7,3.1-7,7c0,3.8,3.1,6.9,6.9,7v0h17.8c-1-0.9-1.7-2.2-1.7-3.7
		C25.8,31.4,28,29.2,30.7,29.2z"/>
	<path fill="#82BFAB" d="M27.2,9.3l-0.1,0c-0.2,0-0.4,0.2-0.4,0.4v1.5c0,0.2,0.1,0.3,0.3,0.4c2.4,0.9,4.4,2.7,5.3,5.1
		c0.1,0.2,0.2,0.3,0.4,0.3h1.5c0.1,0,0.3-0.1,0.3-0.2c0.1-0.1,0.1-0.2,0.1-0.4C33.4,13.1,30.7,10.4,27.2,9.3z"/>
	<path fill="#616E7D" d="M27.7,5L27.7,5c-0.3,0-0.5,0.2-0.5,0.4v1.5c0,0.2,0.1,0.3,0.3,0.4c4.4,1.1,7.9,4.5,9.2,8.9
		c0,0.2,0.2,0.3,0.4,0.3h1.5c0.1,0,0.2-0.1,0.3-0.2C39,16.2,39,16.1,39,16C37.6,10.5,33.2,6.2,27.7,5z"/>
</g>
</svg>
