<?xml version="1.0" encoding="utf-8"?>
<!-- Generator: Adobe Illustrator 18.0.0, SVG Export Plug-In . SVG Version: 6.00 Build 0)  -->
<!DOCTYPE svg PUBLIC "-//W3C//DTD SVG 1.1//EN" "http://www.w3.org/Graphics/SVG/1.1/DTD/svg11.dtd">
<svg version="1.1" id="Layer_1" xmlns="http://www.w3.org/2000/svg" xmlns:xlink="http://www.w3.org/1999/xlink" x="0px" y="0px"
	 viewBox="0 0 32.5 30.9" enable-background="new 0 0 32.5 30.9" xml:space="preserve">
<g>
	<path fill="#616E7D" d="M2.1,1.5c-0.6,0-1,0.5-1,1.1v24.9c0,0.5,0.4,1,0.9,1.1l11.4,2c0.3,0.1,0.6,0,0.9-0.2
		c0.2-0.2,0.4-0.5,0.4-0.8v-28c0-0.3-0.1-0.6-0.4-0.8c-0.2-0.2-0.5-0.3-0.8-0.3L2.1,1.5z M11.7,17c-0.5,0-0.8-0.7-0.8-1.5
		c0-0.8,0.4-1.5,0.8-1.5c0.5,0,0.8,0.7,0.8,1.5C12.6,16.3,12.2,17,11.7,17z"/>
	<polygon fill="#AAD3C7" points="31.2,14.9 22.3,8.3 22.3,11.8 15.4,11.8 15.4,18.1 22.3,18.1 22.3,21.5 	"/>
	<ellipse fill="#FFFFFF" cx="11.7" cy="15.5" rx="0.8" ry="1.5"/>
	<path fill="#616E7D" d="M21.6,10.8V2.3c0-0.2-0.1-0.4-0.2-0.6c-0.2-0.2-0.4-0.2-0.6-0.2h-5.3v1.7h4.4v7.7H21.6z"/>
	<path fill="#616E7D" d="M15.4,27.9v1.7h5.3c0.2,0,0.4-0.1,0.6-0.2c0.2-0.2,0.2-0.4,0.2-0.6V19h-1.7v8.9H15.4z"/>
</g>
</svg>
