<?xml version="1.0" encoding="utf-8"?>
<!-- Generator: Adobe Illustrator 18.0.0, SVG Export Plug-In . SVG Version: 6.00 Build 0)  -->
<!DOCTYPE svg PUBLIC "-//W3C//DTD SVG 1.1//EN" "http://www.w3.org/Graphics/SVG/1.1/DTD/svg11.dtd">
<svg version="1.1" id="Layer_1" xmlns="http://www.w3.org/2000/svg" xmlns:xlink="http://www.w3.org/1999/xlink" x="0px" y="0px"
	 viewBox="0 0 33.5 37.5" enable-background="new 0 0 33.5 37.5" xml:space="preserve">
<g>
	<path fill="#616E7D" d="M14.5,14.5h8.7c1,0,1.8-0.7,1.8-1.6V4.1c0-0.9-0.8-1.6-1.8-1.6H4.5c-1,0-1.8,0.7-1.8,1.6v8.8
		c0,0.9,0.8,1.6,1.8,1.6H12l-0.2,2.8L14.5,14.5z M6,5.6h15.7v0.9H6V5.6z M6,7.9h15.7v0.9H6V7.9z M6,11.2v-0.9h8v0.9H6z"/>
	<path fill="#AAD3C7" d="M31.3,17.3v-6c0-0.6-0.5-1-1.2-1h-4.2v3.2c0,1-0.9,1.7-2,1.7h-5.6v2.1c0,0.6,0.5,1,1.2,1h5.7l1.7,1.7
		l-0.2-1.7h3.4C30.8,18.4,31.3,17.9,31.3,17.3z"/>
	<circle fill="#616E7D" cx="10.3" cy="23" r="5"/>
	<path fill="#616E7D" d="M7.4,28.5c-2.6,0-4.7,2.1-4.7,4.7v2.3H18v-2.3c0-2.6-2.1-4.7-4.7-4.7H7.4z M12.2,34.8h-0.7H9.2l0.6-3.8
		l-0.6,3.8H8.5L7.4,29c0.1,0,0.2,0,0.3,0H13c0.1,0,0.2,0,0.3,0L12.2,34.8z"/>
	<path fill="#FFFFFF" d="M10.9,30.9L10.9,30.9l0.6,3.8h0.7l1.1-5.7c-0.1,0-0.2,0-0.3,0H7.7c-0.1,0-0.2,0-0.3,0l1.1,5.7h0.7l0.6-3.8
		h0l-0.6-1.1h2.3L10.9,30.9L10.9,30.9z"/>
	<polygon fill="#AAD3C7" points="9.2,34.8 11.5,34.8 10.9,30.9 10.9,30.9 10.9,30.9 11.5,29.9 9.2,29.9 9.8,30.9 9.7,30.9 	"/>
	<rect x="6" y="5.6" fill="#FFFFFF" width="15.7" height="0.9"/>
	<rect x="6" y="7.9" fill="#FFFFFF" width="15.7" height="0.9"/>
	<rect x="6" y="10.3" fill="#FFFFFF" width="8" height="0.9"/>
	<path fill="#616E7D" d="M24.8,21.5c-2,0.1-3.7,1.8-3.8,3.8c-0.1,2.3,1.7,4.3,4,4.3c0.1,0,0.1,0,0.2,0h4.8c0.1,0,0.1-0.1,0-0.1
		c-0.6-0.2-1-0.9-1-1.7v-2.2h0l0-0.1C29.1,23.2,27.1,21.3,24.8,21.5z"/>
	<path fill="#616E7D" d="M22.7,29.9c-2.1,0-3.8,1.7-3.8,3.8v1.8h12.3v-1.8c0-2.1-1.7-3.8-3.8-3.8H22.7z M26.1,32.3l0.8,0.7L25.1,35
		l-1.8-1.9l0.8-0.7c0,0-1.2-1-1.2-1.1c-0.1-0.2,0.7-0.7,0.7-0.7l1.5,4.5l1.5-4.5c0,0,0.8,0.5,0.7,0.7C27.2,31.3,26.1,32.3,26.1,32.3
		z"/>
	<path fill="#FFFFFF" d="M25.1,35l-1.5-4.5c0,0-0.8,0.5-0.7,0.7c0.1,0.1,1.2,1.1,1.2,1.1l-0.8,0.7L25.1,35z"/>
	<path fill="#FFFFFF" d="M27.3,31.2c0.1-0.2-0.7-0.7-0.7-0.7L25.1,35l1.8-1.9l-0.8-0.7C26.1,32.3,27.2,31.3,27.3,31.2z"/>
</g>
</svg>
