<?xml version="1.0" encoding="utf-8"?>
<!-- Generator: Adobe Illustrator 18.0.0, SVG Export Plug-In . SVG Version: 6.00 Build 0)  -->
<!DOCTYPE svg PUBLIC "-//W3C//DTD SVG 1.1//EN" "http://www.w3.org/Graphics/SVG/1.1/DTD/svg11.dtd">
<svg version="1.1" id="Layer_1" xmlns="http://www.w3.org/2000/svg" xmlns:xlink="http://www.w3.org/1999/xlink" x="0px" y="0px"
	 viewBox="0 0 33.4 28" enable-background="new 0 0 33.4 28" xml:space="preserve">
<g>
	<path fill="none" d="M14.5,3.2c4.1-0.1,7.7,2,9.8,5.1L24.8,8c-2.2-3.4-6-5.5-10.4-5.5C7.7,2.6,2.4,8.2,2.5,14.9
		c0.1,6.7,5.7,12.1,12.4,12c6.7-0.1,12.1-5.7,12-12.4c0-2-0.5-3.9-1.4-5.5l-0.6,0.3c0.8,1.6,1.3,3.3,1.3,5.2
		c0.1,6.4-5,11.6-11.3,11.7c-6.4,0.1-11.6-5-11.7-11.3C3,8.5,8.1,3.3,14.5,3.2z"/>
	<path fill="#616E7D" d="M14.5,2.5c4.3-0.1,8.1,2.1,10.4,5.5l0.6-0.4C23.1,4,19,1.7,14.4,1.8C7.3,1.9,1.6,7.8,1.8,14.9
		c0.1,7.1,6,12.8,13.1,12.7c7.1-0.1,12.8-6,12.7-13.1c0-2.1-0.6-4.1-1.5-5.9L25.4,9c0.9,1.7,1.4,3.5,1.4,5.5
		c0.1,6.7-5.3,12.3-12,12.4C8.1,27,2.6,21.6,2.5,14.9C2.4,8.2,7.7,2.6,14.5,2.5z"/>
	<path fill="#616E7D" d="M14.5,6.1c3,0,5.7,1.4,7.3,3.8l2.5-1.5c-2.1-3.2-5.7-5.2-9.8-5.1C8.1,3.3,3,8.5,3.1,14.9
		c0.1,6.4,5.3,11.4,11.7,11.3c6.4-0.1,11.4-5.3,11.3-11.7c0-1.9-0.5-3.6-1.3-5.2l-2.5,1.5c0.6,1.1,0.9,2.4,0.9,3.7
		c0.1,4.8-3.7,8.7-8.5,8.8C10,23.4,6.1,19.6,6,14.8C5.9,10.1,9.7,6.1,14.5,6.1z"/>
	<path fill="#FFFFFF" d="M14.6,8.9c1.9,0,3.7,0.9,4.7,2.4l2.5-1.5c-1.6-2.3-4.3-3.8-7.3-3.8c-4.8,0.1-8.6,4-8.5,8.8
		c0.1,4.8,4,8.6,8.8,8.5c4.8-0.1,8.6-4,8.5-8.8c0-1.3-0.4-2.6-0.9-3.7l-2.5,1.5c0.3,0.7,0.5,1.5,0.5,2.3c0.1,3.2-2.5,5.8-5.7,5.8
		c-3.2,0.1-5.8-2.5-5.8-5.7C8.8,11.6,11.4,9,14.6,8.9z"/>
	<path fill="#616E7D" d="M14.6,11.8c0.9,0,1.7,0.4,2.2,1l2.5-1.5c-1.1-1.5-2.8-2.4-4.7-2.4c-3.2,0.1-5.7,2.7-5.7,5.8
		c0.1,3.2,2.7,5.7,5.8,5.7c3.2-0.1,5.7-2.7,5.7-5.8c0-0.8-0.2-1.6-0.5-2.3l-2.5,1.5c0.1,0.3,0.1,0.5,0.1,0.8c0,1.6-1.2,2.9-2.8,2.9
		c-1.6,0-2.9-1.2-2.9-2.8C11.7,13.1,13,11.8,14.6,11.8z"/>
	<path fill="#FFFFFF" d="M15,13.9l1.8-1.1c-0.5-0.6-1.3-1-2.2-1c-1.6,0-2.9,1.3-2.8,2.9c0,1.6,1.3,2.9,2.9,2.8
		c1.6,0,2.9-1.3,2.8-2.9c0-0.3-0.1-0.6-0.1-0.8l-1.8,1.1c-0.2,0.1-0.5,0.1-0.7-0.2l0,0C14.7,14.4,14.7,14.1,15,13.9z"/>
	<path fill="#AAD3C7" d="M31.2,7.4c0.1,0.1,0.3,0.1,0.4,0l0.4-0.2C32,7.2,32,7.1,32,7c0-0.1,0-0.1-0.1-0.2l-1.8-0.9l0.2-0.1
		c0,0,0.1-0.1,0.1-0.1c0,0,0-0.1,0-0.1l-0.2-0.4c-0.1-0.1-0.2-0.1-0.3-0.1l-0.2,0.1l0-2c0-0.1,0-0.1-0.1-0.2s-0.1,0-0.2,0L29,3.3
		c-0.1,0.1-0.2,0.2-0.2,0.3l0,2.1l-0.1,0.1l0-2c0-0.1,0-0.1-0.1-0.2c-0.1,0-0.1,0-0.2,0l-0.4,0.2C28,4,27.9,4.1,27.9,4.2l0,2.1
		l-0.1,0.1l0-2c0-0.1,0-0.1-0.1-0.2c-0.1,0-0.1,0-0.2,0l-0.4,0.2C27,4.5,27,4.7,27,4.8l0,1.8c0,0.1,0,0.1-0.1,0.2l-1.5,0.9L24.8,8
		l-0.6,0.3l-2.5,1.5l-2.5,1.5l-2.5,1.5L15,13.9c-0.3,0.2-0.4,0.5-0.2,0.8l0,0c0.2,0.2,0.5,0.3,0.7,0.2l1.8-1.1l2.5-1.5l2.5-1.5
		l2.5-1.5L25.4,9L26,8.6l1.5-0.9c0.1,0,0.1,0,0.2,0l1.6,0.9c0.1,0.1,0.3,0.1,0.4,0L30,8.3c0.1,0,0.1-0.1,0.1-0.2
		c0-0.1,0-0.1-0.1-0.2l-1.8-0.9L28.4,7l1.9,1C30.3,8,30.5,8,30.6,8L31,7.7c0.1,0,0.1-0.1,0.1-0.2c0-0.1,0-0.1-0.1-0.2l-1.8-0.9
		l0.1-0.1L31.2,7.4z"/>
</g>
</svg>
